# xmcd CD database file
#
# Track frame offsets:
#	150
#	4056
#	25341
#	45269
#	50415
#	63663
#	74625
#	100120
#	106161
#	119329
#	137944
#	154143
#	167958
#	175488
#	181104
#	189859
#	200542
#	214768
#	217422
#	224237
#
# Disc length: 3065 seconds
#
# Revision: 1
# Processed by: cddbd v1.5.1PL0 Copyright (c) Steve Scherf et al.
# Submitted via: CDex 1.40PlusFr
#
DISCID=360bf714
DTITLE=MARTI - El Jinete
DYEAR=1900
DGENRE=Tribal
TTITLE0=A l'horizon
TTITLE1=El Jinete
TTITLE2=Un que sovent s'en es anat...
TTITLE3=E a tu:que te sembla?
TTITLE4=Padre Providencia
TTITLE5=LA Pesadilla es humo...
TTITLE6=Carcassona
TTITLE7=Peña Montañesa: 1944
TTITLE8=Temps de vendemias
TTITLE9=La complata de Mandrin
TTITLE10=Les chemins de la mer
TTITLE11=A Lèu
TTITLE12=POint final
TTITLE13=Fanfare point final
TTITLE14=Coplas para niños
TTITLE15=Music
TTITLE16=Le cavalier
TTITLE17=Me comprenetz
TTITLE18=Herbe bleue
TTITLE19=Final Herbe bleue
EXTD=ID3G: 72
EXTT0=
EXTT1=
EXTT2=
EXTT3=
EXTT4=
EXTT5=
EXTT6=
EXTT7=
EXTT8=
EXTT9=
EXTT10=
EXTT11=
EXTT12=
EXTT13=
EXTT14=
EXTT15=
EXTT16=
EXTT17=
EXTT18=
EXTT19=
PLAYORDER=
